<svg width="280" height="316" fill="none" xmlns="http://www.w3.org/2000/svg"><g clip-path="url(#clip0)"><circle cx="137.5" cy="134.5" r="118.5" fill="#E2001A"/><path fill-rule="evenodd" clip-rule="evenodd" d="M231 190.115c-6.358 1.899-10.347 1.381-11.968-1.553-1.37-2.48 1.195-11.955 0-15.537 2.764-4.485 2.052-16.902-.798-27.189-2.086-7.532-5.983-13.816-7.18-15.537-1.888-2.714-5.345-6.599-10.37-11.653-6.773-7.562-11.03-13.259-12.768-17.09-1.739-3.83-3.068-9.528-3.989-17.09l7.978 4.66c2.607-9.095 4.734-15.828 6.383-20.197 1.649-4.37 4.308-10.325 7.979-17.867-13.227 3.497-23.599 10.23-31.117 20.197-11.277 14.952-1.559 33.163 3.99 44.605 9.042 18.644 16.488 29.67 22.339 33.079-.35.285-.615.496-.795.631-2.377 1.791-6.633 3.134-12.768 4.03 1.491 5.23 2.82 9.114 3.989 11.653 1.169 2.538 3.297 6.163 6.383 10.875-1.596.518-3.723.518-6.383 0 3.723 5.697 3.723 18.903 0 39.619-2.127-2.072-3.989-4.661-5.585-7.768 1.578 5.632-12.765 2.655-11.17 4.208.532.518 2.449 2.006 3.99 10.099 1.026 5.395.494 10.315-1.596 14.76-.993-3.09-1.791-5.421-2.394-6.991-2.172-5.662-5.194-7.42-9.574-6.215-3.772 1.038-19.508 7.324-23.138.777a1.3 1.3 0 0 0-1.141-.663c-.716 0-1.297.565-1.297 1.263V300c5.973-4.096 9.711-6.544 11.215-7.342 6.146-3.266 11.674-5.149 14.361-6.992 4.228-2.9 7.419-6.266 9.574-10.099l.427 3.326c.04.311.175.602.388.836a1.626 1.626 0 0 0 2.252.136c6.038-5.195 10.068-9.476 12.092-12.843 2.268-3.772 3.598-9.728 3.99-17.867l3.502 3.978a1.624 1.624 0 0 0 2.49-.082c3.344-4.364 5.336-7.734 5.976-10.111 3.374-12.544 2.393-20.198 2.393-20.198s8.365-2.505 15.159-12.429c2.177-3.179 4.57-9.911 7.181-20.198zM165.576 66.949l-.925-1.334c-6.703-9.68-11.706-17.003-15.008-21.97C146.19 38.45 142.976 32.235 140 25v97.105c3.08.668 5.477 1.186 7.191 1.553 1.715.368 4.166.885 7.354 1.554-4.516-16.175-7.239-28.345-8.171-36.511-.931-8.167-.659-17.489.817-27.966a32.69 32.69 0 0 1 7.354 1.553c2.33.788 6.007 2.341 11.031 4.661zm8.358 130.774s11.088-12.442 8.304-12.442h-9.281l3.708-4.312c4.619-5.371 5.756-12.81 2.944-19.258l-.302-.692 2.61-4.932 2.763-5.22c-8.327-5.625-15.998-9.782-23.013-12.472-7.015-2.69-14.237-4.236-21.667-4.638v55.256h1.62c2.258 0 4.446-.77 6.182-2.177a7.185 7.185 0 0 0 2.686-5.581v-.64c0-.754.628-1.365 1.402-1.365.438 0 .85.199 1.115.538l3.813 4.871c5.627 6.322 8.89 9.366 9.789 9.133 3.076-.798-.795-12.589-3.419-17.22-5.663-9.993-13.654-14.569-15.746-18.041-1.395-2.315-1.395-5.01 0-8.087l4.023 4.977 2.82-1.72a30.93 30.93 0 0 1 16.092-4.501h5.511l-.43.199a32.674 32.674 0 0 0-8.851 6.022h7.815l-5.258 6.278c-1.635 1.952-4.011 3.176-6.588 3.395l-3.296.28 7.4 13.279a62.77 62.77 0 0 1 5.308 12.566l1.946 6.504zm-31.158 10.584l1.878 3.015a6.391 6.391 0 0 0 4.39 2.904l8.653 1.429h3.895v-4.941c4.52 4.18 7.523 7.239 9.01 9.176 3.995 5.207 6.328 10.358 6.997 15.452v-10.274c0-4.585-1.488-9.053-4.252-12.766-3.176-4.266-4.854-6.651-5.033-7.153-.158-.445-.156-1.101.931-1.298.405-.074 1.053-.074 1.944 0l-17.426-8.197a11.43 11.43 0 0 0-4.859-1.082h-1.657v.949c0 .859-.715 1.554-1.596 1.554H140v1.564c0 3.409.96 6.753 2.776 9.668z" fill="#D90119"/><path fill-rule="evenodd" clip-rule="evenodd" d="M49 190.115c6.358 1.899 10.347 1.381 11.968-1.553 1.37-2.48-1.195-11.955 0-15.537-2.764-4.485-2.052-16.902.798-27.189 2.086-7.532 5.983-13.816 7.18-15.537 1.889-2.714 5.345-6.599 10.37-11.653 6.773-7.562 11.03-13.259 12.768-17.09 1.739-3.83 3.068-9.528 3.99-17.09l-7.98 4.66c-2.606-9.095-4.733-15.828-6.382-20.197-1.648-4.37-4.308-10.325-7.978-17.867 13.226 3.497 23.598 10.23 31.116 20.197 11.277 14.952 1.559 33.163-3.99 44.605-9.042 18.644-16.489 29.67-22.34 33.079.351.285.616.496.796.631 2.377 1.791 6.633 3.134 12.768 4.03-1.49 5.23-2.82 9.114-3.99 11.653-1.168 2.538-3.295 6.163-6.382 10.875 1.596.518 3.723.518 6.383 0-3.724 5.697-3.724 18.903 0 39.619 2.127-2.072 3.99-4.661 5.585-7.768-1.578 5.632 12.765 2.655 11.17 4.208-.532.518-2.449 2.006-3.99 10.099-1.026 5.395-.494 10.315 1.596 14.76.993-3.09 1.791-5.421 2.394-6.991 2.172-5.662 5.194-7.42 9.574-6.215 3.772 1.038 19.508 7.324 23.138.777a1.278 1.278 0 0 1 1.12-.651c.703 0 1.273.555 1.273 1.24V300c-5.943-4.096-9.666-6.544-11.17-7.342-6.146-3.266-11.674-5.149-14.361-6.992-4.228-2.9-7.419-6.266-9.574-10.099l-.427 3.326a1.53 1.53 0 0 1-.388.836 1.626 1.626 0 0 1-2.252.136c-6.038-5.195-10.068-9.476-12.093-12.843-2.267-3.772-3.597-9.728-3.989-17.867l-3.501 3.978a1.625 1.625 0 0 1-2.49-.082c-3.345-4.364-5.337-7.734-5.976-10.111-3.375-12.544-2.394-20.198-2.394-20.198s-8.365-2.505-15.16-12.429c-2.176-3.179-4.57-9.911-7.18-20.198zm65.424-123.166l.925-1.334c6.703-9.68 11.706-17.003 15.008-21.97 3.453-5.194 6.652-11.409 9.598-18.645v97.105c-3.05.668-5.432 1.186-7.146 1.553-1.715.368-4.166.885-7.354 1.554 4.516-16.175 7.239-28.345 8.171-36.511.931-8.167.659-17.489-.817-27.966a32.69 32.69 0 0 0-7.354 1.553c-2.33.788-6.007 2.341-11.031 4.661zm-8.358 130.774s-11.088-12.442-8.303-12.442h9.28l-3.708-4.312c-4.62-5.371-5.756-12.81-2.944-19.258l.302-.692-2.61-4.932-2.763-5.22c8.327-5.625 15.998-9.782 23.013-12.472 7.015-2.69 14.223-4.236 21.622-4.638l.045 49.707v.027l-.045 5.522h-1.575a9.824 9.824 0 0 1-6.182-2.177 7.185 7.185 0 0 1-2.686-5.581v-.64c0-.754-.628-1.365-1.402-1.365-.438 0-.85.199-1.115.538l-3.813 4.871c-5.627 6.322-8.89 9.366-9.789 9.133-3.076-.798.795-12.589 3.419-17.22 5.663-9.993 13.654-14.569 15.746-18.041 1.395-2.315 1.395-5.01 0-8.087l-4.023 4.977-2.82-1.72a30.93 30.93 0 0 0-16.092-4.501h-5.511l.43.199a32.674 32.674 0 0 1 8.851 6.022h-7.815l5.258 6.278c1.635 1.952 4.011 3.176 6.588 3.395l3.296.28-7.4 13.279a62.77 62.77 0 0 0-5.308 12.566l-1.946 6.504zm31.145 10.565l-1.867 3.019a6.387 6.387 0 0 1-4.4 2.921l-8.641 1.427h-3.895v-4.941c-4.52 4.18-7.523 7.239-9.01 9.176-3.995 5.207-6.328 10.358-6.997 15.452v-10.274c0-4.585 1.488-9.053 4.252-12.766 3.176-4.266 4.854-6.651 5.033-7.153.158-.445.156-1.101-.931-1.298-.405-.074-1.053-.074-1.944 0l17.426-8.197a11.43 11.43 0 0 1 4.859-1.082h1.657v.949c0 .859.715 1.554 1.596 1.554h5.606v1.596c0 3.389-.948 6.714-2.744 9.617z" fill="#DB0019"/><path opacity=".96" fill-rule="evenodd" clip-rule="evenodd" d="M219.972 183.094c-5.59 1.714-9.097 1.247-10.522-1.403-1.204-2.239 1.05-10.795 0-14.029 2.43-4.05 1.804-15.262-.701-24.551-1.835-6.801-5.261-12.475-6.313-14.029-1.661-2.451-4.699-5.958-9.117-10.522-5.955-6.829-9.697-11.973-11.226-15.432-1.528-3.46-2.697-8.603-3.507-15.432l7.014 4.208c2.292-8.213 4.163-14.292 5.612-18.237 1.45-3.946 3.788-9.324 7.015-16.134-11.629 3.158-20.748 9.237-27.357 18.238-9.915 13.5-1.371 29.945 3.507 40.276 7.95 16.835 14.497 26.792 19.641 29.87-.308.257-.541.447-.699.569-2.09 1.618-5.832 2.831-11.226 3.64 1.311 4.722 2.48 8.229 3.507 10.521 1.028 2.293 2.899 5.566 5.612 9.821-1.403.467-3.273.467-5.612 0 3.274 5.144 3.274 17.069 0 35.774-1.87-1.87-3.507-4.209-4.91-7.014 1.387 5.085-11.223 2.397-9.82 3.8.467.468 2.153 1.811 3.507 9.119.903 4.872.435 9.314-1.403 13.328-.873-2.791-1.574-4.895-2.104-6.313-1.91-5.113-4.567-6.7-8.418-5.612-3.316.937-17.15 6.613-20.342.701a1.14 1.14 0 0 0-2.144.542v67.524c5.252-3.699 8.538-5.909 9.86-6.63 5.404-2.949 10.264-4.649 12.626-6.313 3.717-2.619 6.523-5.659 8.418-9.119l.375 3.003a1.403 1.403 0 0 0 2.321.877c5.308-4.691 8.852-8.556 10.632-11.596 1.994-3.407 3.163-8.785 3.507-16.134l3.079 3.592a1.402 1.402 0 0 0 2.189-.074c2.941-3.941 4.692-6.984 5.254-9.13 2.966-11.327 2.104-18.238 2.104-18.238s7.354-2.262 13.328-11.223c1.913-2.87 4.018-8.95 6.313-18.238zm-57.52-111.215l-.813-1.205c-5.893-8.74-10.292-15.354-13.195-19.839-3.036-4.69-5.861-10.301-8.478-16.835v87.682a1423.413 1423.413 0 0 0 12.788 2.806c-3.97-14.605-6.365-25.594-7.184-32.968-.818-7.374-.579-15.792.719-25.253 2.262.224 4.417.692 6.465 1.403 2.048.711 5.281 2.114 9.698 4.209zm7.348 118.084s9.749-11.234 7.301-11.234h-8.159l3.26-3.894a16.834 16.834 0 0 0 2.587-17.389l-.265-.625 2.295-4.453 2.429-4.714c-7.321-5.079-14.065-8.833-20.232-11.262-6.168-2.429-12.518-3.825-19.05-4.188v49.895h1.424a8.497 8.497 0 0 0 5.435-1.966 6.555 6.555 0 0 0 2.362-5.039v-.578a1.233 1.233 0 0 1 2.214-.748l3.352 4.399c4.946 5.708 7.815 8.457 8.606 8.247 2.704-.721-.699-11.368-3.006-15.549-4.979-9.024-12.004-13.155-13.844-16.291-1.226-2.09-1.226-4.524 0-7.302l3.537 4.494 2.479-1.553a26.655 26.655 0 0 1 14.148-4.064h4.845l-.378.179a28.73 28.73 0 0 0-7.781 5.438h6.871l-4.623 5.669a8.421 8.421 0 0 1-5.792 3.066l-2.898.252 6.506 11.991a57.537 57.537 0 0 1 4.667 11.346l1.71 5.873zm-27.393 9.558l1.651 2.722a5.611 5.611 0 0 0 3.86 2.622l7.608 1.291h3.423v-4.462c3.974 3.775 6.615 6.536 7.922 8.286 3.513 4.702 5.563 9.353 6.152 13.953v-9.278c0-4.14-1.308-8.174-3.738-11.527-2.793-3.852-4.268-6.006-4.426-6.459-.139-.402-.137-.994.819-1.172.356-.067.925-.067 1.709 0l-15.32-7.401a9.816 9.816 0 0 0-4.272-.978h-1.458v.858c0 .774-.628 1.403-1.403 1.403h-4.968v1.411c0 3.079.845 6.098 2.441 8.731z" fill="#fff"/><path fill-rule="evenodd" clip-rule="evenodd" d="M60 183.094c5.59 1.714 9.097 1.247 10.522-1.403 1.204-2.239-1.05-10.795 0-14.029-2.43-4.05-1.804-15.262.701-24.551 1.835-6.801 5.261-12.475 6.314-14.029 1.66-2.451 4.698-5.958 9.116-10.522 5.955-6.829 9.697-11.973 11.226-15.432 1.528-3.46 2.697-8.603 3.507-15.432l-7.014 4.208c-2.292-8.213-4.163-14.292-5.612-18.237-1.45-3.946-3.788-9.324-7.015-16.134 11.629 3.158 20.748 9.237 27.357 18.238 9.915 13.5 1.371 29.945-3.507 40.276-7.95 16.835-14.497 26.792-19.641 29.87.308.257.541.447.699.569 2.09 1.618 5.832 2.831 11.226 3.64-1.31 4.722-2.48 8.229-3.508 10.521-1.027 2.293-2.898 5.566-5.611 9.821 1.403.467 3.273.467 5.611 0-3.273 5.144-3.273 17.069 0 35.774 1.871-1.87 3.508-4.209 4.91-7.014-1.386 5.085 11.224 2.397 9.821 3.8-.467.468-2.153 1.811-3.507 9.119-.903 4.872-.435 9.314 1.403 13.328.873-2.791 1.574-4.895 2.104-6.313 1.91-5.113 4.567-6.7 8.418-5.612 3.316.937 17.15 6.613 20.342.701a1.119 1.119 0 0 1 2.104.532v67.534c-5.225-3.699-8.498-5.909-9.82-6.63-5.404-2.949-10.264-4.649-12.626-6.313-3.718-2.619-6.523-5.659-8.418-9.119l-.375 3.003a1.403 1.403 0 0 1-2.321.877c-5.308-4.691-8.852-8.556-10.632-11.596-1.993-3.407-3.163-8.785-3.507-16.134l-3.079 3.592a1.402 1.402 0 0 1-2.19-.074c-2.94-3.941-4.69-6.984-5.253-9.13-2.966-11.327-2.104-18.238-2.104-18.238s-7.354-2.262-13.328-11.223c-1.913-2.87-4.018-8.95-6.313-18.238zm57.52-111.215l.813-1.205c5.893-8.74 10.292-15.354 13.195-19.839 3.036-4.69 5.848-10.301 8.438-16.835v87.682a1253.75 1253.75 0 0 1-6.283 1.403c-1.507.332-3.662.8-6.465 1.403 3.97-14.605 6.365-25.594 7.184-32.968.818-7.374.579-15.792-.719-25.253a28.093 28.093 0 0 0-6.465 1.403c-2.048.711-5.281 2.114-9.698 4.209zm-7.348 118.084s-9.749-11.234-7.301-11.234h8.159l-3.26-3.894a16.834 16.834 0 0 1-2.587-17.389l.265-.625-2.295-4.453-2.429-4.714c7.321-5.079 14.065-8.833 20.232-11.262 6.168-2.429 12.505-3.825 19.01-4.188l.04 44.884v.025l-.04 4.986h-1.384a8.497 8.497 0 0 1-5.435-1.966 6.555 6.555 0 0 1-2.362-5.039v-.578a1.233 1.233 0 0 0-2.214-.748l-3.352 4.399c-4.946 5.708-7.815 8.457-8.606 8.247-2.705-.721.699-11.368 3.006-15.549 4.979-9.024 12.004-13.155 13.844-16.291 1.226-2.09 1.226-4.524 0-7.302l-3.537 4.494-2.479-1.553a26.655 26.655 0 0 0-14.148-4.064h-4.845l.378.179a28.73 28.73 0 0 1 7.781 5.438h-6.871l4.623 5.669a8.421 8.421 0 0 0 5.792 3.066l2.898.252-6.506 11.991a57.537 57.537 0 0 0-4.667 11.346l-1.71 5.873zm27.382 9.541l-1.642 2.725a5.608 5.608 0 0 1-3.869 2.638l-7.597 1.289h-3.423v-4.462c-3.974 3.775-6.615 6.536-7.922 8.286-3.513 4.702-5.563 9.353-6.152 13.953v-9.278c0-4.14 1.308-8.174 3.738-11.527 2.793-3.852 4.268-6.006 4.426-6.459.139-.402.137-.994-.819-1.172-.356-.067-.925-.067-1.709 0l15.32-7.401a9.816 9.816 0 0 1 4.272-.978h1.458v.858c0 .774.628 1.403 1.402 1.403h4.929v1.44c0 3.061-.834 6.063-2.412 8.685z" fill="#fff"/></g><defs><clipPath id="clip0"><path fill="#fff" d="M0 0h280v316H0z"/></clipPath></defs></svg>
